<?xml version="1.0" encoding="UTF-8"?>
<svg xmlns="http://www.w3.org/2000/svg" xmlns:xlink="http://www.w3.org/1999/xlink" width="220" height="220" viewBox="0 0 220 220">
  <defs>
    <clipPath id="a">
      <rect width="130" height="82.485" fill="#aaa8a8"></rect>
    </clipPath>
  </defs>
  <g transform="translate(-23 -1230)">
    <circle cx="100" cy="100" r="100" transform="translate(33 1240)" fill="#fff"></circle>
    <path d="M110,2A108.809,108.809,0,0,0,88.232,4.194,107.4,107.4,0,0,0,49.618,20.444,108.321,108.321,0,0,0,10.486,67.962a107.442,107.442,0,0,0-6.292,20.27,109.073,109.073,0,0,0,0,43.536,107.4,107.4,0,0,0,16.249,38.615,108.321,108.321,0,0,0,47.519,39.131,107.442,107.442,0,0,0,20.27,6.292,109.073,109.073,0,0,0,43.536,0,107.4,107.4,0,0,0,38.615-16.249,108.321,108.321,0,0,0,39.131-47.519,107.442,107.442,0,0,0,6.292-20.27,109.073,109.073,0,0,0,0-43.536,107.4,107.4,0,0,0-16.249-38.615,108.321,108.321,0,0,0-47.519-39.131,107.442,107.442,0,0,0-20.27-6.292A108.809,108.809,0,0,0,110,2m0-2A110,110,0,1,1,0,110,110,110,0,0,1,110,0Z" transform="translate(23 1230)" fill="#aaa8a8"></path>
    <g transform="translate(65.5 1275.508)">
      <g transform="translate(0 0)" clip-path="url(#a)">
        <path d="M57.885,3.838l3.185,6.788L56.118,13a16.682,16.682,0,0,0-3.452,2.18c-1.782-2.35-3.445-5.693-5.115-8.325-2.779-4.829,6.1-10.991,10.334-3.021" transform="translate(16.11 0)" fill="#aaa8a8" fill-rule="evenodd"></path>
        <path d="M34.085,17.892,44.747,29.853c.791,1.59-.222,3.6-2.337,4.272a3.715,3.715,0,0,1-3.295-.777q-1.716-1.277-3.432-2.554-1.518-1.512-3.033-3.028L29.5,25.283C26,21.689,28.2,18.274,31.048,17.466c1.363-.387,2.21-.5,3.037.426" transform="translate(9.49 5.885)" fill="#aaa8a8" fill-rule="evenodd"></path>
        <path d="M32.133,17.473c-.8-1.563-.07-4.8,1.036-5.71,6.47-4.564,9.644,2.76,12.694,6.964,1.169,1.612,3.084,3.461,4.377,5.122a6.914,6.914,0,0,1,1.125,3.63,4.263,4.263,0,0,1-1.4,3.354c-3.212,2.578-5.628.1-8.245-2.817C40.81,27,35.494,21.3,33.191,18.722a15.073,15.073,0,0,1-1.058-1.249" transform="translate(10.893 3.534)" fill="#aaa8a8" fill-rule="evenodd"></path>
        <path d="M54.058,15.04a22.973,22.973,0,0,0-5.446,2.48c-.691.467-.965.635-1.179,1.449-.352,1.336,1.375,4.222,3.062,5.683.435.376.451.3.318.377a1.117,1.117,0,0,1-.874.067,1.189,1.189,0,0,1-.685-.416,38.785,38.785,0,0,1-4.284-5.158c-1.776-2.7-4.087-5.219-5.929-7.924-1.59-3.624-.775-5.732,1.743-7.429a5.634,5.634,0,0,1,7.869,1.606c1.623,2.727,4.036,6.489,5.4,9.265" transform="translate(13.096 1.103)" fill="#aaa8a8" fill-rule="evenodd"></path>
        <path d="M53.4,43.2c-5.172,2.076-6.274,1.7-12.125.922a10.52,10.52,0,0,0,1.986,1.54c1.884,1.305,2.013,1.643,2.418,4.009.518,3.038,1.442,6.548,2.019,9.545.376-.591-.662-9.742-.619-11.255.044-1.548.767-1.488,1.545-1.5,1.093-.012,1.008,1.356,1.411,3.45.486,2.524,1.136,7.117,1.36,6.894.146-.148-.507-6.338-.71-9.28-.176-2.559.934-2.2,2.715-4.33" transform="translate(14.141 14.801)" fill="#aaa8a8" fill-rule="evenodd"></path>
        <path d="M69.584,78.849,67.4,62.64c-.462-2.967-.859-5.969-1.359-8.919-.157-.925,8.319-7.438,16.783-25.473.85-2.105-1.343-4.461-2.429-6.211-2.143-3.456-5.329-7.639-7.117-11.106-2.586-3.4-1.265-4.339-10.5.1a13.365,13.365,0,0,0-3.053,2.241,2.675,2.675,0,0,1-.795.681c-2.888,1.155-6.234,2.676-6.454,3.089-.693,2.462,2.45,5.27,4.531,5.907,1.947.593,8.061-.242,8.848-1.466-.64,1.14,1.391,4.506,2.339,5.131-16.217,5.327-15.7,11.009-17.583,23.467A30.932,30.932,0,0,1,51.4,37.717a16.889,16.889,0,0,1,5.691-7.1A43.1,43.1,0,0,1,65.458,26c-1.438-1.509-.682-2.47-1.5-1.845a9.8,9.8,0,0,1-5.932,1c-2.074-.372-3.684-.3-3.6.639.3,3.553.129,4.921-2.277,7.082a8.055,8.055,0,0,1-4.7,1.372c-.251-.009-.785-.165-.7.036,1.318,3.127-4.091,5.078-4.445,5.177A4.106,4.106,0,0,1,38.1,38.4c-2.645-2.689-6.859-5.981-9.5-8.671-.138.937,1.067,2.552,1.059,4.26a2.167,2.167,0,0,0,1.3,1.971,4.749,4.749,0,0,0,.959-.031,2.223,2.223,0,0,1-.631.216c-.405.05-.333.22-.242.448a4.156,4.156,0,0,1,.205.721c1.42,10.762,4.345,10.972,5.523,13.332,2.611,5.242,2.691,4.279,2.629,10.455-.034,3.314.052,11.827.083,17.614" transform="translate(9.793 2.753)" fill="#aaa8a8" fill-rule="evenodd"></path>
        <path d="M88.986,21.14l2.221,4.734-3.452,1.658a11.648,11.648,0,0,0-2.409,1.52c-1.242-1.638-2.4-3.97-3.566-5.805-1.939-3.367,4.256-7.665,7.206-2.107" transform="translate(27.892 6.325)" fill="#aaa8a8" fill-rule="evenodd"></path>
        <path d="M72.388,30.941l7.435,8.342a2.223,2.223,0,0,1-1.63,2.979,2.591,2.591,0,0,1-2.3-.542L73.5,39.939l-2.115-2.111-2.194-1.733c-2.446-2.507-.912-4.887,1.077-5.451.949-.27,1.541-.349,2.117.3" transform="translate(23.275 10.43)" fill="#aaa8a8" fill-rule="evenodd"></path>
        <path d="M71.027,30.648a4.188,4.188,0,0,1,.722-3.982c4.512-3.182,6.726,1.925,8.853,4.858.816,1.124,2.151,2.413,3.052,3.571a4.823,4.823,0,0,1,.785,2.531,2.968,2.968,0,0,1-.979,2.339c-2.239,1.8-3.924.074-5.749-1.964-.634-.708-4.342-4.682-5.948-6.482a10.691,10.691,0,0,1-.737-.87" transform="translate(24.253 8.79)" fill="#aaa8a8" fill-rule="evenodd"></path>
        <path d="M86.317,28.952a16.011,16.011,0,0,0-3.8,1.729c-.481.326-.673.443-.822,1.011-.246.93.96,2.944,2.136,3.962.3.263.314.213.222.264a.788.788,0,0,1-.61.046.82.82,0,0,1-.477-.29,26.936,26.936,0,0,1-2.989-3.6c-1.239-1.88-2.85-3.64-4.134-5.526-1.109-2.527-.541-4,1.215-5.181a3.929,3.929,0,0,1,5.487,1.121c1.132,1.9,2.815,4.525,3.769,6.461" transform="translate(25.79 7.095)" fill="#aaa8a8" fill-rule="evenodd"></path>
        <path d="M85.859,48.593c-3.606,1.447-4.376,1.183-8.456.643a7.4,7.4,0,0,0,1.384,1.074c1.314.91,1.4,1.145,1.686,2.8.362,2.12,1.007,4.568,1.408,6.657.262-.412-.462-6.794-.431-7.849.031-1.079.534-1.038,1.078-1.043.761-.008.7.945.983,2.406.34,1.76.792,4.964.949,4.808.1-.1-.354-4.42-.5-6.471-.124-1.784.651-1.537,1.893-3.02" transform="translate(26.518 16.648)" fill="#aaa8a8" fill-rule="evenodd"></path>
        <path d="M97.145,73.451l-1.521-11.3c-.322-2.068-.6-4.162-.948-6.219-.109-.646,5.8-5.188,11.7-17.765.593-1.467-.936-3.111-1.693-4.33-1.5-2.41-3.716-5.327-4.964-7.745-1.8-2.367-.882-3.026-7.325.073a9.331,9.331,0,0,0-2.129,1.561,1.836,1.836,0,0,1-.553.475,22.729,22.729,0,0,0-4.5,2.155c-.482,1.717,1.709,3.675,3.16,4.119,1.357.414,5.621-.168,6.171-1.023-.447.795.969,3.143,1.631,3.579-11.31,3.715-10.95,7.678-12.262,16.365a21.577,21.577,0,0,1,.553-8.624,11.79,11.79,0,0,1,3.97-4.953,29.961,29.961,0,0,1,5.831-3.221c-1-1.053-.475-1.723-1.046-1.288a6.836,6.836,0,0,1-4.137.7c-1.447-.26-2.57-.208-2.513.444.211,2.478.09,3.433-1.588,4.939a5.607,5.607,0,0,1-3.276.957c-.175-.007-.546-.115-.487.026.92,2.18-2.853,3.54-3.1,3.61a2.866,2.866,0,0,1-2.931-.744c-1.845-1.876-4.782-4.171-6.627-6.047-.1.654.744,1.78.738,2.971a1.509,1.509,0,0,0,.906,1.375,3.332,3.332,0,0,0,.669-.021,1.527,1.527,0,0,1-.44.15c-.283.035-.232.153-.168.313a3.014,3.014,0,0,1,.142.5c.991,7.505,3.03,7.65,3.852,9.3,1.822,3.656,1.877,2.985,1.834,7.292-.024,2.311.036,8.248.058,12.283" transform="translate(23.487 8.245)" fill="#aaa8a8" fill-rule="evenodd"></path>
        <path d="M21.051,21.728l2.221,4.734L19.82,28.12a11.648,11.648,0,0,0-2.409,1.52c-1.242-1.638-2.4-3.97-3.566-5.805-1.939-3.367,4.256-7.665,7.206-2.107" transform="translate(4.617 6.527)" fill="#aaa8a8" fill-rule="evenodd"></path>
        <path d="M4.453,31.529l7.435,8.342a2.223,2.223,0,0,1-1.63,2.979,2.591,2.591,0,0,1-2.3-.542l-2.394-1.78L3.453,38.416,1.259,36.683C-1.187,34.176.348,31.8,2.336,31.232c.949-.27,1.541-.349,2.117.3" transform="translate(0 10.631)" fill="#aaa8a8" fill-rule="evenodd"></path>
        <path d="M3.092,31.237a4.188,4.188,0,0,1,.722-3.982c4.512-3.182,6.726,1.925,8.853,4.858.816,1.124,2.151,2.413,3.052,3.571a4.823,4.823,0,0,1,.785,2.531,2.968,2.968,0,0,1-.979,2.339c-2.239,1.8-3.924.074-5.749-1.964-.634-.708-4.342-4.682-5.948-6.482a10.692,10.692,0,0,1-.737-.87" transform="translate(0.979 8.992)" fill="#aaa8a8" fill-rule="evenodd"></path>
        <path d="M18.382,29.54a16.011,16.011,0,0,0-3.8,1.729c-.481.326-.673.443-.822,1.011-.246.93.96,2.944,2.136,3.962.3.263.314.213.222.264a.788.788,0,0,1-.61.046.82.82,0,0,1-.477-.29,26.937,26.937,0,0,1-2.989-3.6c-1.239-1.88-2.85-3.64-4.134-5.526-1.109-2.527-.541-4,1.215-5.181a3.929,3.929,0,0,1,5.487,1.121c1.132,1.9,2.815,4.525,3.769,6.461" transform="translate(2.515 7.297)" fill="#aaa8a8" fill-rule="evenodd"></path>
        <path d="M17.923,49.181c-3.606,1.447-4.376,1.183-8.456.643A7.4,7.4,0,0,0,10.851,50.9c1.314.91,1.4,1.145,1.686,2.8.363,2.12,1.007,4.568,1.408,6.657.262-.412-.462-6.794-.431-7.849.031-1.079.534-1.038,1.078-1.043.761-.008.7.945.983,2.406.34,1.76.792,4.964.949,4.808.1-.1-.354-4.42-.5-6.471-.124-1.784.651-1.537,1.893-3.02" transform="translate(3.243 16.849)" fill="#aaa8a8" fill-rule="evenodd"></path>
        <path d="M29.21,74.039l-1.521-11.3c-.322-2.068-.6-4.162-.948-6.219-.109-.646,5.8-5.188,11.7-17.765.593-1.467-.936-3.111-1.693-4.33-1.5-2.41-3.716-5.327-4.964-7.745-1.8-2.367-.882-3.026-7.325.072a9.331,9.331,0,0,0-2.129,1.561,1.835,1.835,0,0,1-.553.475,22.729,22.729,0,0,0-4.5,2.155c-.482,1.717,1.709,3.675,3.16,4.119,1.357.414,5.621-.168,6.171-1.023-.447.795.969,3.143,1.631,3.579-11.31,3.715-10.95,7.678-12.262,16.365a21.577,21.577,0,0,1,.553-8.624A11.79,11.79,0,0,1,20.5,40.4a29.962,29.962,0,0,1,5.831-3.221c-1-1.053-.475-1.723-1.046-1.288a6.839,6.839,0,0,1-4.137.7c-1.447-.26-2.57-.208-2.513.444.211,2.478.09,3.433-1.588,4.939a5.607,5.607,0,0,1-3.276.957c-.175-.007-.546-.115-.487.026.92,2.18-2.853,3.54-3.1,3.61a2.866,2.866,0,0,1-2.931-.744C5.409,43.952,2.472,41.656.627,39.781c-.1.654.744,1.78.738,2.971a1.509,1.509,0,0,0,.906,1.375,3.332,3.332,0,0,0,.669-.021,1.527,1.527,0,0,1-.44.15c-.283.035-.232.153-.168.313a3.015,3.015,0,0,1,.142.5c.991,7.505,3.03,7.65,3.852,9.3C8.148,58.024,8.2,57.353,8.16,61.66c-.024,2.311.036,8.248.058,12.283" transform="translate(0.212 8.447)" fill="#aaa8a8" fill-rule="evenodd"></path>
      </g>
    </g>
    <path d="M47.938,16.707h6.3v8.6a18.246,18.246,0,0,1-2.971.715,21.03,21.03,0,0,1-3.076.211,7.727,7.727,0,0,1-6-2.3,9.273,9.273,0,0,1-2.109-6.5,8.664,8.664,0,0,1,2.379-6.475,8.942,8.942,0,0,1,6.551-2.338A12.757,12.757,0,0,1,54.1,9.652l-.984,2.332a9.9,9.9,0,0,0-4.172-.961,5.618,5.618,0,0,0-4.336,1.723,6.667,6.667,0,0,0-1.594,4.711,7.033,7.033,0,0,0,1.436,4.775,5.2,5.2,0,0,0,4.131,1.635,13.577,13.577,0,0,0,2.906-.34V19.109H47.938Zm15.785,9.527a6.27,6.27,0,0,1-4.729-1.764,6.7,6.7,0,0,1-1.705-4.857,7.346,7.346,0,0,1,1.582-4.992A5.464,5.464,0,0,1,63.219,12.8a5.341,5.341,0,0,1,4.055,1.559,5.956,5.956,0,0,1,1.488,4.289v1.488H60.125a4.257,4.257,0,0,0,1.02,2.9,3.551,3.551,0,0,0,2.707,1.014,9.993,9.993,0,0,0,2.139-.217,11.21,11.21,0,0,0,2.127-.721v2.238a8.455,8.455,0,0,1-2.039.68A12.5,12.5,0,0,1,63.723,26.234Zm-.5-11.344a2.767,2.767,0,0,0-2.1.832,3.965,3.965,0,0,0-.943,2.426h5.883a3.588,3.588,0,0,0-.773-2.432A2.645,2.645,0,0,0,63.219,14.891Zm13.5,9.117a6.7,6.7,0,0,0,2.016-.316v2.074a5.559,5.559,0,0,1-1.178.334,8.114,8.114,0,0,1-1.494.135q-3.914,0-3.914-4.125V15.125h-1.77V13.906l1.9-1.008.938-2.742h1.7v2.883h3.691v2.086H74.914v6.938a1.946,1.946,0,0,0,.5,1.471A1.816,1.816,0,0,0,76.719,24.008ZM97.613,8.867h2.906L94.52,26H91.566L85.59,8.867h2.883L92.047,19.52q.281.762.6,1.963t.41,1.787q.152-.891.469-2.062t.516-1.734ZM112.449,26l-1.711-4.758h-6.551L102.512,26H99.559l6.41-17.2h3.047l6.41,17.2ZM110,18.828l-1.605-4.664q-.176-.469-.486-1.477t-.428-1.477a26.263,26.263,0,0,1-.926,3.152l-1.547,4.465ZM121.93,26h-2.8V11.27H114.09v-2.4h12.879v2.4H121.93ZM33.1,47l-.551-1.8h-.094a5.31,5.31,0,0,1-1.887,1.611,5.967,5.967,0,0,1-2.437.428A4.125,4.125,0,0,1,25.145,46.2a3.859,3.859,0,0,1-1.072-2.918,3.426,3.426,0,0,1,1.488-3.023A8.581,8.581,0,0,1,30.1,39.148l2.238-.07v-.691a2.621,2.621,0,0,0-.58-1.857,2.366,2.366,0,0,0-1.8-.615,6.22,6.22,0,0,0-1.91.293,14.415,14.415,0,0,0-1.758.691L25.4,34.93a9.585,9.585,0,0,1,2.309-.838,10.624,10.624,0,0,1,2.367-.287A5.606,5.606,0,0,1,33.8,34.883a4.221,4.221,0,0,1,1.26,3.387V47Zm-4.1-1.875a3.411,3.411,0,0,0,2.408-.838,3.037,3.037,0,0,0,.908-2.35V40.813l-1.664.07a5.694,5.694,0,0,0-2.83.65,1.976,1.976,0,0,0-.885,1.775,1.732,1.732,0,0,0,.516,1.342A2.215,2.215,0,0,0,28.994,45.125Zm18.621-1.816a3.391,3.391,0,0,1-1.383,2.912,6.622,6.622,0,0,1-3.961,1.014,9.356,9.356,0,0,1-4.16-.785V44.07a10.214,10.214,0,0,0,4.254,1.055q2.543,0,2.543-1.535a1.216,1.216,0,0,0-.281-.82,3.329,3.329,0,0,0-.926-.68,15.932,15.932,0,0,0-1.793-.8,8.294,8.294,0,0,1-3.029-1.734,3.209,3.209,0,0,1-.791-2.25,2.955,2.955,0,0,1,1.342-2.584,6.367,6.367,0,0,1,3.65-.92,10.339,10.339,0,0,1,4.324.926L46.514,36.8a9.618,9.618,0,0,0-3.527-.867q-2.18,0-2.18,1.242a1.25,1.25,0,0,0,.568,1.031,12.5,12.5,0,0,0,2.479,1.16,11.33,11.33,0,0,1,2.332,1.137A3.4,3.4,0,0,1,47.264,41.7,3.442,3.442,0,0,1,47.615,43.309Zm11.684,0a3.391,3.391,0,0,1-1.383,2.912,6.622,6.622,0,0,1-3.961,1.014,9.356,9.356,0,0,1-4.16-.785V44.07a10.214,10.214,0,0,0,4.254,1.055q2.543,0,2.543-1.535a1.216,1.216,0,0,0-.281-.82,3.329,3.329,0,0,0-.926-.68,15.932,15.932,0,0,0-1.793-.8,8.294,8.294,0,0,1-3.029-1.734,3.209,3.209,0,0,1-.791-2.25,2.955,2.955,0,0,1,1.342-2.584,6.367,6.367,0,0,1,3.65-.92,10.339,10.339,0,0,1,4.324.926L58.2,36.8a9.618,9.618,0,0,0-3.527-.867q-2.18,0-2.18,1.242a1.25,1.25,0,0,0,.568,1.031,12.5,12.5,0,0,0,2.479,1.16,11.33,11.33,0,0,1,2.332,1.137A3.4,3.4,0,0,1,58.947,41.7,3.442,3.442,0,0,1,59.3,43.309ZM65.029,47H62.275V34.039h2.754ZM62.111,30.605a1.525,1.525,0,0,1,.4-1.137,1.575,1.575,0,0,1,1.154-.4,1.542,1.542,0,0,1,1.131.4,1.525,1.525,0,0,1,.4,1.137,1.5,1.5,0,0,1-.4,1.107,1.529,1.529,0,0,1-1.131.4,1.562,1.562,0,0,1-1.154-.4A1.5,1.5,0,0,1,62.111,30.605Zm15.563,12.7a3.391,3.391,0,0,1-1.383,2.912,6.622,6.622,0,0,1-3.961,1.014,9.356,9.356,0,0,1-4.16-.785V44.07a10.214,10.214,0,0,0,4.254,1.055q2.543,0,2.543-1.535a1.216,1.216,0,0,0-.281-.82,3.329,3.329,0,0,0-.926-.68,15.932,15.932,0,0,0-1.793-.8,8.294,8.294,0,0,1-3.029-1.734,3.209,3.209,0,0,1-.791-2.25,2.955,2.955,0,0,1,1.342-2.584,6.367,6.367,0,0,1,3.65-.92,10.339,10.339,0,0,1,4.324.926L76.572,36.8a9.618,9.618,0,0,0-3.527-.867q-2.18,0-2.18,1.242a1.25,1.25,0,0,0,.568,1.031,12.5,12.5,0,0,0,2.479,1.16,11.33,11.33,0,0,1,2.332,1.137A3.4,3.4,0,0,1,77.322,41.7,3.442,3.442,0,0,1,77.674,43.309Zm7.8,1.7a6.7,6.7,0,0,0,2.016-.316v2.074a5.559,5.559,0,0,1-1.178.334,8.114,8.114,0,0,1-1.494.135q-3.914,0-3.914-4.125V36.125h-1.77V34.906l1.9-1.008.938-2.742h1.7v2.883h3.691v2.086H83.674v6.938a1.946,1.946,0,0,0,.5,1.471A1.816,1.816,0,0,0,85.479,45.008ZM98.193,47l-.551-1.8h-.094a5.31,5.31,0,0,1-1.887,1.611,5.967,5.967,0,0,1-2.437.428A4.125,4.125,0,0,1,90.242,46.2a3.859,3.859,0,0,1-1.072-2.918,3.426,3.426,0,0,1,1.488-3.023,8.581,8.581,0,0,1,4.535-1.113l2.238-.07v-.691a2.621,2.621,0,0,0-.58-1.857,2.366,2.366,0,0,0-1.8-.615,6.22,6.22,0,0,0-1.91.293,14.415,14.415,0,0,0-1.758.691l-.891-1.969a9.585,9.585,0,0,1,2.309-.838A10.624,10.624,0,0,1,95.17,33.8,5.606,5.606,0,0,1,98.9,34.883a4.221,4.221,0,0,1,1.26,3.387V47Zm-4.1-1.875a3.411,3.411,0,0,0,2.408-.838,3.037,3.037,0,0,0,.908-2.35V40.813l-1.664.07a5.694,5.694,0,0,0-2.83.65,1.976,1.976,0,0,0-.885,1.775,1.732,1.732,0,0,0,.516,1.342A2.215,2.215,0,0,0,94.092,45.125ZM115.408,47h-2.766V39.031a3.488,3.488,0,0,0-.6-2.238,2.333,2.333,0,0,0-1.916-.738,3.047,3.047,0,0,0-2.555,1.031,5.694,5.694,0,0,0-.809,3.457V47h-2.754V34.039h2.156l.387,1.7h.141a3.834,3.834,0,0,1,1.664-1.43,5.577,5.577,0,0,1,2.391-.5q4.664,0,4.664,4.746Zm9.059.234A5.675,5.675,0,0,1,120,45.518a7.173,7.173,0,0,1-1.529-4.928,7.213,7.213,0,0,1,1.6-5.027,5.934,5.934,0,0,1,4.623-1.758,8.664,8.664,0,0,1,3.691.762l-.832,2.215a8.34,8.34,0,0,0-2.883-.68q-3.363,0-3.363,4.465a5.347,5.347,0,0,0,.838,3.275,2.9,2.9,0,0,0,2.455,1.1,7.044,7.044,0,0,0,3.48-.914v2.4a5.439,5.439,0,0,1-1.576.621A9.458,9.458,0,0,1,124.467,47.234Zm12.316,0a6.27,6.27,0,0,1-4.729-1.764,6.7,6.7,0,0,1-1.705-4.857,7.346,7.346,0,0,1,1.582-4.992,5.464,5.464,0,0,1,4.348-1.816,5.341,5.341,0,0,1,4.055,1.559,5.956,5.956,0,0,1,1.488,4.289v1.488h-8.637a4.257,4.257,0,0,0,1.02,2.9,3.551,3.551,0,0,0,2.707,1.014,9.993,9.993,0,0,0,2.139-.217,11.21,11.21,0,0,0,2.127-.721v2.238a8.455,8.455,0,0,1-2.039.68A12.5,12.5,0,0,1,136.783,47.234Zm-.5-11.344a2.767,2.767,0,0,0-2.1.832,3.965,3.965,0,0,0-.943,2.426h5.883a3.588,3.588,0,0,0-.773-2.432A2.645,2.645,0,0,0,136.279,35.891Z" transform="translate(50 1365)" fill="#c00000"></path>
  </g>
</svg>
