<?xml version="1.0" encoding="UTF-8"?>
<svg xmlns="http://www.w3.org/2000/svg" xmlns:xlink="http://www.w3.org/1999/xlink" width="220" height="220" viewBox="0 0 220 220">
  <defs>
    <clipPath id="a">
      <rect width="130" height="82.485" fill="#aaa8a8"></rect>
    </clipPath>
  </defs>
  <g transform="translate(-23 -1230)">
    <circle cx="100" cy="100" r="100" transform="translate(33 1240)" fill="#fff"></circle>
    <path d="M110,2A108.809,108.809,0,0,0,88.232,4.194,107.4,107.4,0,0,0,49.618,20.444,108.321,108.321,0,0,0,10.486,67.962a107.442,107.442,0,0,0-6.292,20.27,109.073,109.073,0,0,0,0,43.536,107.4,107.4,0,0,0,16.249,38.615,108.321,108.321,0,0,0,47.519,39.131,107.442,107.442,0,0,0,20.27,6.292,109.073,109.073,0,0,0,43.536,0,107.4,107.4,0,0,0,38.615-16.249,108.321,108.321,0,0,0,39.131-47.519,107.442,107.442,0,0,0,6.292-20.27,109.073,109.073,0,0,0,0-43.536,107.4,107.4,0,0,0-16.249-38.615,108.321,108.321,0,0,0-47.519-39.131,107.442,107.442,0,0,0-20.27-6.292A108.809,108.809,0,0,0,110,2m0-2A110,110,0,1,1,0,110,110,110,0,0,1,110,0Z" transform="translate(23 1230)" fill="#c00000"></path>
    <g transform="translate(65.5 1275.508)">
      <g transform="translate(0 0)" clip-path="url(#a)">
        <path d="M57.885,3.838l3.185,6.788L56.118,13a16.682,16.682,0,0,0-3.452,2.18c-1.782-2.35-3.445-5.693-5.115-8.325-2.779-4.829,6.1-10.991,10.334-3.021" transform="translate(16.11 0)" fill="#aaa8a8" fill-rule="evenodd"></path>
        <path d="M34.085,17.892,44.747,29.853c.791,1.59-.222,3.6-2.337,4.272a3.715,3.715,0,0,1-3.295-.777q-1.716-1.277-3.432-2.554-1.518-1.512-3.033-3.028L29.5,25.283C26,21.689,28.2,18.274,31.048,17.466c1.363-.387,2.21-.5,3.037.426" transform="translate(9.49 5.885)" fill="#aaa8a8" fill-rule="evenodd"></path>
        <path d="M32.133,17.473c-.8-1.563-.07-4.8,1.036-5.71,6.47-4.564,9.644,2.76,12.694,6.964,1.169,1.612,3.084,3.461,4.377,5.122a6.914,6.914,0,0,1,1.125,3.63,4.263,4.263,0,0,1-1.4,3.354c-3.212,2.578-5.628.1-8.245-2.817C40.81,27,35.494,21.3,33.191,18.722a15.073,15.073,0,0,1-1.058-1.249" transform="translate(10.893 3.534)" fill="#aaa8a8" fill-rule="evenodd"></path>
        <path d="M54.058,15.04a22.973,22.973,0,0,0-5.446,2.48c-.691.467-.965.635-1.179,1.449-.352,1.336,1.375,4.222,3.062,5.683.435.376.451.3.318.377a1.117,1.117,0,0,1-.874.067,1.189,1.189,0,0,1-.685-.416,38.785,38.785,0,0,1-4.284-5.158c-1.776-2.7-4.087-5.219-5.929-7.924-1.59-3.624-.775-5.732,1.743-7.429a5.634,5.634,0,0,1,7.869,1.606c1.623,2.727,4.036,6.489,5.4,9.265" transform="translate(13.096 1.103)" fill="#aaa8a8" fill-rule="evenodd"></path>
        <path d="M53.4,43.2c-5.172,2.076-6.274,1.7-12.125.922a10.52,10.52,0,0,0,1.986,1.54c1.884,1.305,2.013,1.643,2.418,4.009.518,3.038,1.442,6.548,2.019,9.545.376-.591-.662-9.742-.619-11.255.044-1.548.767-1.488,1.545-1.5,1.093-.012,1.008,1.356,1.411,3.45.486,2.524,1.136,7.117,1.36,6.894.146-.148-.507-6.338-.71-9.28-.176-2.559.934-2.2,2.715-4.33" transform="translate(14.141 14.801)" fill="#aaa8a8" fill-rule="evenodd"></path>
        <path d="M69.584,78.849,67.4,62.64c-.462-2.967-.859-5.969-1.359-8.919-.157-.925,8.319-7.438,16.783-25.473.85-2.105-1.343-4.461-2.429-6.211-2.143-3.456-5.329-7.639-7.117-11.106-2.586-3.4-1.265-4.339-10.5.1a13.365,13.365,0,0,0-3.053,2.241,2.675,2.675,0,0,1-.795.681c-2.888,1.155-6.234,2.676-6.454,3.089-.693,2.462,2.45,5.27,4.531,5.907,1.947.593,8.061-.242,8.848-1.466-.64,1.14,1.391,4.506,2.339,5.131-16.217,5.327-15.7,11.009-17.583,23.467A30.932,30.932,0,0,1,51.4,37.717a16.889,16.889,0,0,1,5.691-7.1A43.1,43.1,0,0,1,65.458,26c-1.438-1.509-.682-2.47-1.5-1.845a9.8,9.8,0,0,1-5.932,1c-2.074-.372-3.684-.3-3.6.639.3,3.553.129,4.921-2.277,7.082a8.055,8.055,0,0,1-4.7,1.372c-.251-.009-.785-.165-.7.036,1.318,3.127-4.091,5.078-4.445,5.177A4.106,4.106,0,0,1,38.1,38.4c-2.645-2.689-6.859-5.981-9.5-8.671-.138.937,1.067,2.552,1.059,4.26a2.167,2.167,0,0,0,1.3,1.971,4.749,4.749,0,0,0,.959-.031,2.223,2.223,0,0,1-.631.216c-.405.05-.333.22-.242.448a4.156,4.156,0,0,1,.205.721c1.42,10.762,4.345,10.972,5.523,13.332,2.611,5.242,2.691,4.279,2.629,10.455-.034,3.314.052,11.827.083,17.614" transform="translate(9.793 2.753)" fill="#aaa8a8" fill-rule="evenodd"></path>
        <path d="M88.986,21.14l2.221,4.734-3.452,1.658a11.648,11.648,0,0,0-2.409,1.52c-1.242-1.638-2.4-3.97-3.566-5.805-1.939-3.367,4.256-7.665,7.206-2.107" transform="translate(27.892 6.325)" fill="#aaa8a8" fill-rule="evenodd"></path>
        <path d="M72.388,30.941l7.435,8.342a2.223,2.223,0,0,1-1.63,2.979,2.591,2.591,0,0,1-2.3-.542L73.5,39.939l-2.115-2.111-2.194-1.733c-2.446-2.507-.912-4.887,1.077-5.451.949-.27,1.541-.349,2.117.3" transform="translate(23.275 10.43)" fill="#aaa8a8" fill-rule="evenodd"></path>
        <path d="M71.027,30.648a4.188,4.188,0,0,1,.722-3.982c4.512-3.182,6.726,1.925,8.853,4.858.816,1.124,2.151,2.413,3.052,3.571a4.823,4.823,0,0,1,.785,2.531,2.968,2.968,0,0,1-.979,2.339c-2.239,1.8-3.924.074-5.749-1.964-.634-.708-4.342-4.682-5.948-6.482a10.691,10.691,0,0,1-.737-.87" transform="translate(24.253 8.79)" fill="#aaa8a8" fill-rule="evenodd"></path>
        <path d="M86.317,28.952a16.011,16.011,0,0,0-3.8,1.729c-.481.326-.673.443-.822,1.011-.246.93.96,2.944,2.136,3.962.3.263.314.213.222.264a.788.788,0,0,1-.61.046.82.82,0,0,1-.477-.29,26.936,26.936,0,0,1-2.989-3.6c-1.239-1.88-2.85-3.64-4.134-5.526-1.109-2.527-.541-4,1.215-5.181a3.929,3.929,0,0,1,5.487,1.121c1.132,1.9,2.815,4.525,3.769,6.461" transform="translate(25.79 7.095)" fill="#aaa8a8" fill-rule="evenodd"></path>
        <path d="M85.859,48.593c-3.606,1.447-4.376,1.183-8.456.643a7.4,7.4,0,0,0,1.384,1.074c1.314.91,1.4,1.145,1.686,2.8.362,2.12,1.007,4.568,1.408,6.657.262-.412-.462-6.794-.431-7.849.031-1.079.534-1.038,1.078-1.043.761-.008.7.945.983,2.406.34,1.76.792,4.964.949,4.808.1-.1-.354-4.42-.5-6.471-.124-1.784.651-1.537,1.893-3.02" transform="translate(26.518 16.648)" fill="#aaa8a8" fill-rule="evenodd"></path>
        <path d="M97.145,73.451l-1.521-11.3c-.322-2.068-.6-4.162-.948-6.219-.109-.646,5.8-5.188,11.7-17.765.593-1.467-.936-3.111-1.693-4.33-1.5-2.41-3.716-5.327-4.964-7.745-1.8-2.367-.882-3.026-7.325.073a9.331,9.331,0,0,0-2.129,1.561,1.836,1.836,0,0,1-.553.475,22.729,22.729,0,0,0-4.5,2.155c-.482,1.717,1.709,3.675,3.16,4.119,1.357.414,5.621-.168,6.171-1.023-.447.795.969,3.143,1.631,3.579-11.31,3.715-10.95,7.678-12.262,16.365a21.577,21.577,0,0,1,.553-8.624,11.79,11.79,0,0,1,3.97-4.953,29.961,29.961,0,0,1,5.831-3.221c-1-1.053-.475-1.723-1.046-1.288a6.836,6.836,0,0,1-4.137.7c-1.447-.26-2.57-.208-2.513.444.211,2.478.09,3.433-1.588,4.939a5.607,5.607,0,0,1-3.276.957c-.175-.007-.546-.115-.487.026.92,2.18-2.853,3.54-3.1,3.61a2.866,2.866,0,0,1-2.931-.744c-1.845-1.876-4.782-4.171-6.627-6.047-.1.654.744,1.78.738,2.971a1.509,1.509,0,0,0,.906,1.375,3.332,3.332,0,0,0,.669-.021,1.527,1.527,0,0,1-.44.15c-.283.035-.232.153-.168.313a3.014,3.014,0,0,1,.142.5c.991,7.505,3.03,7.65,3.852,9.3,1.822,3.656,1.877,2.985,1.834,7.292-.024,2.311.036,8.248.058,12.283" transform="translate(23.487 8.245)" fill="#aaa8a8" fill-rule="evenodd"></path>
        <path d="M21.051,21.728l2.221,4.734L19.82,28.12a11.648,11.648,0,0,0-2.409,1.52c-1.242-1.638-2.4-3.97-3.566-5.805-1.939-3.367,4.256-7.665,7.206-2.107" transform="translate(4.617 6.527)" fill="#aaa8a8" fill-rule="evenodd"></path>
        <path d="M4.453,31.529l7.435,8.342a2.223,2.223,0,0,1-1.63,2.979,2.591,2.591,0,0,1-2.3-.542l-2.394-1.78L3.453,38.416,1.259,36.683C-1.187,34.176.348,31.8,2.336,31.232c.949-.27,1.541-.349,2.117.3" transform="translate(0 10.631)" fill="#aaa8a8" fill-rule="evenodd"></path>
        <path d="M3.092,31.237a4.188,4.188,0,0,1,.722-3.982c4.512-3.182,6.726,1.925,8.853,4.858.816,1.124,2.151,2.413,3.052,3.571a4.823,4.823,0,0,1,.785,2.531,2.968,2.968,0,0,1-.979,2.339c-2.239,1.8-3.924.074-5.749-1.964-.634-.708-4.342-4.682-5.948-6.482a10.692,10.692,0,0,1-.737-.87" transform="translate(0.979 8.992)" fill="#aaa8a8" fill-rule="evenodd"></path>
        <path d="M18.382,29.54a16.011,16.011,0,0,0-3.8,1.729c-.481.326-.673.443-.822,1.011-.246.93.96,2.944,2.136,3.962.3.263.314.213.222.264a.788.788,0,0,1-.61.046.82.82,0,0,1-.477-.29,26.937,26.937,0,0,1-2.989-3.6c-1.239-1.88-2.85-3.64-4.134-5.526-1.109-2.527-.541-4,1.215-5.181a3.929,3.929,0,0,1,5.487,1.121c1.132,1.9,2.815,4.525,3.769,6.461" transform="translate(2.515 7.297)" fill="#aaa8a8" fill-rule="evenodd"></path>
        <path d="M17.923,49.181c-3.606,1.447-4.376,1.183-8.456.643A7.4,7.4,0,0,0,10.851,50.9c1.314.91,1.4,1.145,1.686,2.8.363,2.12,1.007,4.568,1.408,6.657.262-.412-.462-6.794-.431-7.849.031-1.079.534-1.038,1.078-1.043.761-.008.7.945.983,2.406.34,1.76.792,4.964.949,4.808.1-.1-.354-4.42-.5-6.471-.124-1.784.651-1.537,1.893-3.02" transform="translate(3.243 16.849)" fill="#aaa8a8" fill-rule="evenodd"></path>
        <path d="M29.21,74.039l-1.521-11.3c-.322-2.068-.6-4.162-.948-6.219-.109-.646,5.8-5.188,11.7-17.765.593-1.467-.936-3.111-1.693-4.33-1.5-2.41-3.716-5.327-4.964-7.745-1.8-2.367-.882-3.026-7.325.072a9.331,9.331,0,0,0-2.129,1.561,1.835,1.835,0,0,1-.553.475,22.729,22.729,0,0,0-4.5,2.155c-.482,1.717,1.709,3.675,3.16,4.119,1.357.414,5.621-.168,6.171-1.023-.447.795.969,3.143,1.631,3.579-11.31,3.715-10.95,7.678-12.262,16.365a21.577,21.577,0,0,1,.553-8.624A11.79,11.79,0,0,1,20.5,40.4a29.962,29.962,0,0,1,5.831-3.221c-1-1.053-.475-1.723-1.046-1.288a6.839,6.839,0,0,1-4.137.7c-1.447-.26-2.57-.208-2.513.444.211,2.478.09,3.433-1.588,4.939a5.607,5.607,0,0,1-3.276.957c-.175-.007-.546-.115-.487.026.92,2.18-2.853,3.54-3.1,3.61a2.866,2.866,0,0,1-2.931-.744C5.409,43.952,2.472,41.656.627,39.781c-.1.654.744,1.78.738,2.971a1.509,1.509,0,0,0,.906,1.375,3.332,3.332,0,0,0,.669-.021,1.527,1.527,0,0,1-.44.15c-.283.035-.232.153-.168.313a3.015,3.015,0,0,1,.142.5c.991,7.505,3.03,7.65,3.852,9.3C8.148,58.024,8.2,57.353,8.16,61.66c-.024,2.311.036,8.248.058,12.283" transform="translate(0.212 8.447)" fill="#aaa8a8" fill-rule="evenodd"></path>
      </g>
    </g>
    <path d="M33.01,16.707h6.3v8.6a18.246,18.246,0,0,1-2.971.715,21.03,21.03,0,0,1-3.076.211,7.727,7.727,0,0,1-6-2.3,9.273,9.273,0,0,1-2.109-6.5,8.664,8.664,0,0,1,2.379-6.475,8.942,8.942,0,0,1,6.551-2.338,12.757,12.757,0,0,1,5.086,1.031l-.984,2.332a9.9,9.9,0,0,0-4.172-.961,5.618,5.618,0,0,0-4.336,1.723,6.667,6.667,0,0,0-1.594,4.711,7.033,7.033,0,0,0,1.436,4.775,5.2,5.2,0,0,0,4.131,1.635,13.577,13.577,0,0,0,2.906-.34V19.109H33.01Zm15.785,9.527a6.27,6.27,0,0,1-4.729-1.764,6.7,6.7,0,0,1-1.705-4.857,7.346,7.346,0,0,1,1.582-4.992A5.464,5.464,0,0,1,48.291,12.8a5.341,5.341,0,0,1,4.055,1.559,5.956,5.956,0,0,1,1.488,4.289v1.488H45.2a4.257,4.257,0,0,0,1.02,2.9,3.551,3.551,0,0,0,2.707,1.014,9.993,9.993,0,0,0,2.139-.217,11.21,11.21,0,0,0,2.127-.721v2.238a8.455,8.455,0,0,1-2.039.68A12.5,12.5,0,0,1,48.795,26.234Zm-.5-11.344a2.767,2.767,0,0,0-2.1.832,3.965,3.965,0,0,0-.943,2.426h5.883a3.588,3.588,0,0,0-.773-2.432A2.645,2.645,0,0,0,48.291,14.891Zm13.5,9.117a6.7,6.7,0,0,0,2.016-.316v2.074a5.559,5.559,0,0,1-1.178.334,8.114,8.114,0,0,1-1.494.135q-3.914,0-3.914-4.125V15.125h-1.77V13.906l1.9-1.008.938-2.742h1.7v2.883h3.691v2.086H59.986v6.938a1.946,1.946,0,0,0,.5,1.471A1.816,1.816,0,0,0,61.791,24.008ZM82.8,21.348a4.312,4.312,0,0,1-1.652,3.586,7.191,7.191,0,0,1-4.559,1.3,10.877,10.877,0,0,1-4.758-.9V22.684a12.932,12.932,0,0,0,2.49.867,10.559,10.559,0,0,0,2.455.316,3.905,3.905,0,0,0,2.455-.633,2.064,2.064,0,0,0,.791-1.7,2.129,2.129,0,0,0-.727-1.629,10.938,10.938,0,0,0-3-1.582,7.936,7.936,0,0,1-3.3-2.168,4.587,4.587,0,0,1-.961-2.93,4.1,4.1,0,0,1,1.523-3.375,6.319,6.319,0,0,1,4.09-1.23,12.017,12.017,0,0,1,4.9,1.078l-.891,2.285a10.7,10.7,0,0,0-4.078-.961,3.13,3.13,0,0,0-2.062.592,1.944,1.944,0,0,0-.7,1.564,2.2,2.2,0,0,0,.281,1.143,2.873,2.873,0,0,0,.926.9,15.66,15.66,0,0,0,2.32,1.113A12.7,12.7,0,0,1,81.1,17.8a4.308,4.308,0,0,1,1.289,1.535A4.618,4.618,0,0,1,82.8,21.348ZM96.748,26l-1.711-4.758H88.486L86.811,26H83.857l6.41-17.2h3.047L99.725,26ZM94.3,18.828l-1.605-4.664q-.176-.469-.486-1.477t-.428-1.477a26.263,26.263,0,0,1-.926,3.152l-1.547,4.465Zm10.488-1.992h1.945a4.442,4.442,0,0,0,2.836-.727,2.636,2.636,0,0,0,.879-2.156,2.321,2.321,0,0,0-.949-2.086,5.2,5.2,0,0,0-2.859-.633h-1.852Zm0,2.32V26h-2.8V8.867h4.84a7.952,7.952,0,0,1,4.91,1.242,4.46,4.46,0,0,1,1.594,3.75q0,3.2-3.328,4.559L114.842,26h-3.187l-4.1-6.844Zm22.418,2.191a4.312,4.312,0,0,1-1.652,3.586,7.191,7.191,0,0,1-4.559,1.3,10.877,10.877,0,0,1-4.758-.9V22.684a12.932,12.932,0,0,0,2.49.867,10.559,10.559,0,0,0,2.455.316,3.905,3.905,0,0,0,2.455-.633,2.064,2.064,0,0,0,.791-1.7,2.129,2.129,0,0,0-.727-1.629,10.938,10.938,0,0,0-3-1.582,7.936,7.936,0,0,1-3.3-2.168,4.587,4.587,0,0,1-.961-2.93,4.1,4.1,0,0,1,1.523-3.375,6.319,6.319,0,0,1,4.09-1.23,12.017,12.017,0,0,1,4.9,1.078l-.891,2.285a10.7,10.7,0,0,0-4.078-.961,3.13,3.13,0,0,0-2.062.592,1.944,1.944,0,0,0-.7,1.564,2.2,2.2,0,0,0,.281,1.143,2.873,2.873,0,0,0,.926.9,15.66,15.66,0,0,0,2.32,1.113,12.7,12.7,0,0,1,2.766,1.465,4.308,4.308,0,0,1,1.289,1.535A4.618,4.618,0,0,1,127.205,21.348ZM22.832,50.234a4.514,4.514,0,0,1-3.785-1.758,7.9,7.9,0,0,1-1.359-4.934,7.927,7.927,0,0,1,1.377-4.963A4.557,4.557,0,0,1,22.879,36.8a4.468,4.468,0,0,1,3.891,1.887h.141a16.508,16.508,0,0,1-.2-2.2V31.766h2.766V50H27.32l-.48-1.7h-.129A4.4,4.4,0,0,1,22.832,50.234Zm.738-2.227a3,3,0,0,0,2.473-.955,5.028,5.028,0,0,0,.8-3.1v-.387a5.809,5.809,0,0,0-.8-3.48,2.956,2.956,0,0,0-2.5-1.031,2.532,2.532,0,0,0-2.238,1.178,6.036,6.036,0,0,0-.785,3.357,5.885,5.885,0,0,0,.762,3.287A2.572,2.572,0,0,0,23.57,48.008Zm15.5,2.227a6.27,6.27,0,0,1-4.729-1.764,6.7,6.7,0,0,1-1.705-4.857,7.346,7.346,0,0,1,1.582-4.992A5.464,5.464,0,0,1,38.57,36.8a5.341,5.341,0,0,1,4.055,1.559,5.956,5.956,0,0,1,1.488,4.289v1.488H35.477a4.257,4.257,0,0,0,1.02,2.9A3.551,3.551,0,0,0,39.2,48.055a9.993,9.993,0,0,0,2.139-.217,11.21,11.21,0,0,0,2.127-.721v2.238a8.455,8.455,0,0,1-2.039.68A12.5,12.5,0,0,1,39.074,50.234Zm-.5-11.344a2.767,2.767,0,0,0-2.1.832,3.965,3.965,0,0,0-.943,2.426h5.883a3.588,3.588,0,0,0-.773-2.432A2.645,2.645,0,0,0,38.57,38.891ZM53.863,36.8a4.5,4.5,0,0,1,3.779,1.758A7.926,7.926,0,0,1,59,43.5a7.951,7.951,0,0,1-1.371,4.963A4.991,4.991,0,0,1,50,48.465h-.187L49.3,50H47.242V31.766H50V36.1q0,.48-.047,1.43t-.07,1.207H50A4.373,4.373,0,0,1,53.863,36.8Zm-.715,2.25a2.8,2.8,0,0,0-2.4.979A5.693,5.693,0,0,0,50,43.309V43.5a6.062,6.062,0,0,0,.75,3.428A2.79,2.79,0,0,0,53.2,47.984a2.483,2.483,0,0,0,2.221-1.16,6.154,6.154,0,0,0,.756-3.352Q56.172,39.055,53.148,39.055Zm13.875,8.953a6.7,6.7,0,0,0,2.016-.316v2.074a5.559,5.559,0,0,1-1.178.334,8.114,8.114,0,0,1-1.494.135q-3.914,0-3.914-4.125V39.125h-1.77V37.906l1.9-1.008.938-2.742h1.7v2.883H68.91v2.086H65.219v6.938a1.946,1.946,0,0,0,.5,1.471A1.816,1.816,0,0,0,67.023,48.008ZM84.438,36.8a6.629,6.629,0,0,1,1.371.117l-.27,2.566a5.2,5.2,0,0,0-1.219-.141,3.527,3.527,0,0,0-2.678,1.078,3.9,3.9,0,0,0-1.025,2.8V50H77.863V37.039H80.02l.363,2.285h.141a5.135,5.135,0,0,1,1.682-1.84A4,4,0,0,1,84.438,36.8Zm8.953,13.43a6.27,6.27,0,0,1-4.729-1.764,6.7,6.7,0,0,1-1.705-4.857,7.346,7.346,0,0,1,1.582-4.992A5.464,5.464,0,0,1,92.887,36.8a5.341,5.341,0,0,1,4.055,1.559,5.956,5.956,0,0,1,1.488,4.289v1.488H89.793a4.257,4.257,0,0,0,1.02,2.9,3.551,3.551,0,0,0,2.707,1.014,9.993,9.993,0,0,0,2.139-.217,11.21,11.21,0,0,0,2.127-.721v2.238a8.455,8.455,0,0,1-2.039.68A12.5,12.5,0,0,1,93.391,50.234Zm-.5-11.344a2.767,2.767,0,0,0-2.1.832,3.965,3.965,0,0,0-.943,2.426h5.883a3.588,3.588,0,0,0-.773-2.432A2.645,2.645,0,0,0,92.887,38.891ZM104.313,50h-2.754V31.766h2.754ZM111,50H108.25V37.039H111Zm-2.918-16.395a1.525,1.525,0,0,1,.4-1.137,1.575,1.575,0,0,1,1.154-.4,1.542,1.542,0,0,1,1.131.4,1.525,1.525,0,0,1,.4,1.137,1.5,1.5,0,0,1-.4,1.107,1.529,1.529,0,0,1-1.131.4,1.562,1.562,0,0,1-1.154-.4A1.5,1.5,0,0,1,108.086,33.605ZM120.6,50.234a6.27,6.27,0,0,1-4.729-1.764,6.7,6.7,0,0,1-1.705-4.857,7.346,7.346,0,0,1,1.582-4.992A5.464,5.464,0,0,1,120.1,36.8a5.341,5.341,0,0,1,4.055,1.559,5.956,5.956,0,0,1,1.488,4.289v1.488H117a4.257,4.257,0,0,0,1.02,2.9,3.551,3.551,0,0,0,2.707,1.014,9.993,9.993,0,0,0,2.139-.217A11.21,11.21,0,0,0,125,47.117v2.238a8.455,8.455,0,0,1-2.039.68A12.5,12.5,0,0,1,120.6,50.234Zm-.5-11.344a2.767,2.767,0,0,0-2.1.832,3.965,3.965,0,0,0-.943,2.426h5.883a3.588,3.588,0,0,0-.773-2.432A2.645,2.645,0,0,0,120.1,38.891Zm15.176.234h-3.164V50h-2.766V39.125h-2.133V37.836l2.133-.844v-.844a4.716,4.716,0,0,1,1.078-3.4,4.408,4.408,0,0,1,3.293-1.107,8.788,8.788,0,0,1,2.859.48l-.727,2.086a6.349,6.349,0,0,0-1.945-.328,1.583,1.583,0,0,0-1.365.58,2.923,2.923,0,0,0-.428,1.74v.844h3.164Z" transform="translate(58 1360)" fill="#c00000"></path>
  </g>
</svg>
