<?xml version="1.0" encoding="UTF-8"?>
<svg xmlns="http://www.w3.org/2000/svg" xmlns:xlink="http://www.w3.org/1999/xlink" width="94.481" height="120.306" viewBox="0 0 94.481 120.306">
  <defs>
    <clipPath id="a">
      <rect width="94.481" height="120.305" fill="none" stroke="#c00000" stroke-width="1"></rect>
    </clipPath>
  </defs>
  <g transform="translate(-488 -1721.032)">
    <g transform="translate(488 1721.032)">
      <g clip-path="url(#a)">
        <path d="M39.79,88.432H.8a.8.8,0,0,1-.8-.8V.8A.8.8,0,0,1,.8,0H71.121a.8.8,0,0,1,.8.8V41.824a.8.8,0,0,1-1.6,0V1.595H1.595V86.837h38.2a.8.8,0,0,1,0,1.6Z" transform="translate(0.295 0.295)" fill="#c00000"></path>
      </g>
      <path d="M0-.8H50.941a.8.8,0,0,1,.8.8V13.562a.8.8,0,0,1-.8.8H0a.8.8,0,0,1-.8-.8V0A.8.8,0,0,1,0-.8ZM50.144.8H.8V12.764H50.144Z" transform="translate(10.784 8.752)" fill="#c00000"></path>
      <path d="M0-.8H4.45a.8.8,0,0,1,.8.8V5.55a.8.8,0,0,1-.8.8H0a.8.8,0,0,1-.8-.8V0A.8.8,0,0,1,0-.8ZM3.652.8H.8V4.753H3.652Z" transform="translate(52.439 12.757)" fill="#c00000"></path>
      <path d="M0-.8H10.873a.8.8,0,0,1,.8.8V10.873a.8.8,0,0,1-.8.8H0a.8.8,0,0,1-.8-.8V0A.8.8,0,0,1,0-.8ZM10.075.8H.8v9.278h9.278Z" transform="translate(10.784 30.148)" fill="#c00000"></path>
      <path d="M0-.8H10.873a.8.8,0,0,1,.8.8V10.873a.8.8,0,0,1-.8.8H0a.8.8,0,0,1-.8-.8V0A.8.8,0,0,1,0-.8ZM10.075.8H.8v9.278h9.278Z" transform="translate(30.818 30.148)" fill="#c00000"></path>
      <path d="M0-.8H10.873a.8.8,0,0,1,.8.8V10.873a.8.8,0,0,1-.8.8H0a.8.8,0,0,1-.8-.8V0A.8.8,0,0,1,0-.8ZM10.075.8H.8v9.278h9.278Z" transform="translate(50.852 30.148)" fill="#c00000"></path>
      <path d="M0-.8H10.873a.8.8,0,0,1,.8.8V10.873a.8.8,0,0,1-.8.8H0a.8.8,0,0,1-.8-.8V0A.8.8,0,0,1,0-.8ZM10.075.8H.8v9.278h9.278Z" transform="translate(10.784 48.968)" fill="#c00000"></path>
      <path d="M0-.8H10.873a.8.8,0,0,1,.8.8V10.873a.8.8,0,0,1-.8.8H0a.8.8,0,0,1-.8-.8V0A.8.8,0,0,1,0-.8ZM10.075.8H.8v9.278h9.278Z" transform="translate(30.818 48.968)" fill="#c00000"></path>
      <path d="M39.792,47.4H37.107a.8.8,0,0,1-.8-.8V35.732a.8.8,0,0,1,.8-.8h2.827a.8.8,0,0,1,0,1.6H37.9v9.278h1.887a.8.8,0,1,1,0,1.6Z" transform="translate(13.745 13.236)" fill="#c00000"></path>
      <path d="M0-.8H10.873a.8.8,0,0,1,.8.8V10.873a.8.8,0,0,1-.8.8H0a.8.8,0,0,1-.8-.8V0A.8.8,0,0,1,0-.8ZM10.075.8H.8v9.278h9.278Z" transform="translate(10.784 67.788)" fill="#c00000"></path>
      <path d="M27.1,61.135H22.487a.8.8,0,0,1-.8-.8V49.465a.8.8,0,0,1,.8-.8H33.362a.8.8,0,1,1,0,1.595H23.285V59.54H27.1a.8.8,0,1,1,0,1.595Z" transform="translate(8.33 18.323)" fill="#c00000"></path>
      <g clip-path="url(#a)">
        <path d="M76.969,108.967a.8.8,0,0,1-.8-.8v-4.758A19.4,19.4,0,0,1,79,93.357a17.718,17.718,0,0,0,2.637-9.281c0-.946,0-28.4,0-28.678a3.727,3.727,0,1,0-7.454,0,.8.8,0,0,1-1.6,0V48.379a3.731,3.731,0,0,0-3.726-3.728,3.691,3.691,0,0,0-3.644,3.372.8.8,0,0,1-1.591-.069l-.088-6.584s0-.007,0-.011a3.727,3.727,0,1,0-7.454,0,.8.8,0,0,1-1.6,0V34.339a3.73,3.73,0,0,0-3.726-3.726h-.011a3.731,3.731,0,0,0-3.728,3.726v39.63a.8.8,0,0,1-1.456.451l-4.795-6.994L37.793,63.07a4.151,4.151,0,0,0-5.931-.9,3.81,3.81,0,0,0-1.456,2.5,5.334,5.334,0,0,0,.537,3.094A218.511,218.511,0,0,0,44.1,91.259,47.971,47.971,0,0,1,47.918,97.9a15.635,15.635,0,0,1,1.192,6.492s0,.005,0,.008l-.049,3.78a.8.8,0,0,1-1.595-.021l.049-3.775c.015-4.774-1.285-6.815-4.757-12.267A219.955,219.955,0,0,1,29.51,68.47c-1.382-2.819-.828-5.856,1.377-7.558a5.746,5.746,0,0,1,8.2,1.227h0l.014.021.006.009.006.009,2.979,4.345,3.34,4.871V34.339a5.328,5.328,0,0,1,5.323-5.321h.011a5.327,5.327,0,0,1,5.321,5.321v3.225a5.319,5.319,0,0,1,9.049,3.791l.043,3.229a5.2,5.2,0,0,1,3.685-1.527,5.328,5.328,0,0,1,5.321,5.323V51.6a5.319,5.319,0,0,1,9.049,3.8c0,.277,0,27.73,0,28.675A19.283,19.283,0,0,1,80.416,94.1a17.832,17.832,0,0,0-2.65,9.312v4.758A.8.8,0,0,1,76.969,108.967Z" transform="translate(10.949 11.044)" fill="#c00000"></path>
        <path d="M0,16.165H0a.8.8,0,0,1-.8-.8L-.76,0a.8.8,0,0,1,.8-.8.8.8,0,0,1,.8.8L.8,15.37A.8.8,0,0,1,0,16.165Z" transform="translate(75.341 58.986)" fill="#c00000"></path>
        <path d="M0,22.76a.8.8,0,0,1-.8-.8V0A.8.8,0,0,1,0-.8.8.8,0,0,1,.8,0V21.962A.8.8,0,0,1,0,22.76Z" transform="translate(66.233 52.392)" fill="#c00000"></path>
        <path d="M.016,8.71a.8.8,0,0,1-.8-.8L-.8,0A.8.8,0,0,1,0-.8.8.8,0,0,1,.8,0L.814,7.911A.8.8,0,0,1,.016,8.71Z" transform="translate(84.339 66.441)" fill="#c00000"></path>
      </g>
    </g>
  </g>
</svg>
