<?xml version="1.0" encoding="UTF-8"?>
<svg xmlns="http://www.w3.org/2000/svg" xmlns:xlink="http://www.w3.org/1999/xlink" width="80.348" height="119.423" viewBox="0 0 80.348 119.423">
  <defs>
    <clipPath id="a">
      <rect width="80.348" height="119.423" fill="none" stroke="#c00000" stroke-width="1"></rect>
    </clipPath>
  </defs>
  <g transform="translate(-710.279 -1712.956)">
    <g transform="translate(710.279 1712.955)">
      <path d="M0-.808H8.775A.809.809,0,0,1,9.583,0V17.3a.809.809,0,0,1-.809.808H0A.809.809,0,0,1-.808,17.3V0A.809.809,0,0,1,0-.808ZM7.966.809H.809V16.49H7.966Z" transform="translate(13.335 80.217)" fill="#c00000"></path>
      <path d="M0-.809H8.775A.809.809,0,0,1,9.583,0V33.348a.809.809,0,0,1-.809.809H0a.809.809,0,0,1-.808-.809V0A.809.809,0,0,1,0-.809ZM7.966.808H.809V32.54H7.966Z" transform="translate(28.302 64.167)" fill="#c00000"></path>
      <path d="M0-.808H8.775A.809.809,0,0,1,9.583,0V24a.809.809,0,0,1-.809.809H0A.809.809,0,0,1-.808,24V0A.809.809,0,0,1,0-.808ZM7.966.809H.809V23.195H7.966Z" transform="translate(43.27 73.512)" fill="#c00000"></path>
      <path d="M0-.809H8.775A.809.809,0,0,1,9.583,0V39.533a.809.809,0,0,1-.809.808H0a.809.809,0,0,1-.809-.808V0A.809.809,0,0,1,0-.809ZM7.966.808H.809V38.725H7.966Z" transform="translate(58.238 57.982)" fill="#c00000"></path>
      <path d="M0,16.975a.8.8,0,0,1-.462-.146.808.808,0,0,1-.2-1.126L10.616-.463a.808.808,0,0,1,1.126-.2.808.808,0,0,1,.2,1.126L.663,16.629A.808.808,0,0,1,0,16.975Z" transform="translate(49.502 36.997)" fill="#c00000"></path>
      <path d="M9.5,6.77a.8.8,0,0,1-.429-.124L-.43.685A.809.809,0,0,1-.685-.43.808.808,0,0,1,.43-.685l9.5,5.961A.809.809,0,0,1,9.5,6.77Z" transform="translate(35.422 48.132)" fill="#c00000"></path>
      <path d="M0,10.236a.806.806,0,0,1-.595-.261A.808.808,0,0,1-.548,8.833L9.678-.594a.809.809,0,0,1,1.142.046A.808.808,0,0,1,10.774.594L.548,10.022A.806.806,0,0,1,0,10.236Z" transform="translate(20.093 48.604)" fill="#c00000"></path>
      <g transform="translate(0 0)">
        <g clip-path="url(#a)">
          <path d="M3.225-.809A4.033,4.033,0,1,1-.809,3.225,4.038,4.038,0,0,1,3.225-.809Zm0,6.45A2.416,2.416,0,1,0,.808,3.225,2.419,2.419,0,0,0,3.225,5.641Z" transform="translate(59.4 31.129)" fill="#c00000"></path>
          <path d="M3.225-.809A4.033,4.033,0,1,1-.809,3.225,4.038,4.038,0,0,1,3.225-.809Zm0,6.45A2.416,2.416,0,1,0,.808,3.225,2.419,2.419,0,0,0,3.225,5.641Z" transform="translate(44.432 52.582)" fill="#c00000"></path>
          <path d="M3.225-.809A4.033,4.033,0,1,1-.809,3.225,4.038,4.038,0,0,1,3.225-.809Zm0,6.45A2.416,2.416,0,1,0,.808,3.225,2.419,2.419,0,0,0,3.225,5.641Z" transform="translate(29.465 43.194)" fill="#c00000"></path>
          <path d="M3.225-.809A4.033,4.033,0,1,1-.809,3.225,4.038,4.038,0,0,1,3.225-.809Zm0,6.45A2.416,2.416,0,1,0,.808,3.225,2.419,2.419,0,0,0,3.225,5.641Z" transform="translate(14.497 56.991)" fill="#c00000"></path>
          <path d="M75.734,115.847H4.113A4.117,4.117,0,0,1,0,111.734v-97.7A4.117,4.117,0,0,1,4.113,9.924h10.36a.808.808,0,1,1,0,1.617H4.113a2.5,2.5,0,0,0-2.5,2.5v97.7a2.5,2.5,0,0,0,2.5,2.5H75.734a2.5,2.5,0,0,0,2.5-2.5v-97.7a2.5,2.5,0,0,0-2.5-2.5H65.374a.808.808,0,1,1,0-1.617h10.36a4.118,4.118,0,0,1,4.113,4.113v97.7A4.118,4.118,0,0,1,75.734,115.847Z" transform="translate(0.251 3.325)" fill="#c00000"></path>
          <path d="M35.526,0A10.769,10.769,0,0,1,42.72,2.747,10.918,10.918,0,0,1,46.153,8.8h6.176a4.539,4.539,0,0,1,4.534,4.534V18.4a.809.809,0,0,1-.808.809H15a.809.809,0,0,1-.808-.809V13.332A4.539,4.539,0,0,1,18.723,8.8H24.9a10.913,10.913,0,0,1,3.432-6.051A10.771,10.771,0,0,1,35.526,0Zm19.72,17.6V13.332a2.92,2.92,0,0,0-2.917-2.917H45.464a.808.808,0,0,1-.8-.707,9.3,9.3,0,0,0-3.021-5.757,9.175,9.175,0,0,0-12.231,0,9.3,9.3,0,0,0-3.02,5.756.809.809,0,0,1-.8.707H18.723a2.92,2.92,0,0,0-2.917,2.917V17.6Z" transform="translate(4.648 0.25)" fill="#c00000"></path>
          <path d="M2.725-.808A3.533,3.533,0,1,1-.808,2.725,3.537,3.537,0,0,1,2.725-.808Zm0,5.449A1.916,1.916,0,1,0,.809,2.725,1.918,1.918,0,0,0,2.725,4.641Z" transform="translate(37.449 6.112)" fill="#c00000"></path>
        </g>
      </g>
    </g>
  </g>
</svg>
