<?xml version="1.0" encoding="UTF-8"?>
<svg xmlns="http://www.w3.org/2000/svg" xmlns:xlink="http://www.w3.org/1999/xlink" width="100.607" height="104.35" viewBox="0 0 100.607 104.35">
  <defs>
    <clipPath id="a">
      <rect width="100.607" height="104.35" transform="translate(0 0)" fill="none" stroke="#c00000" stroke-width="1"></rect>
    </clipPath>
  </defs>
  <g transform="translate(-932 -1729.01)">
    <g transform="translate(932 1729.01)">
      <g clip-path="url(#a)">
        <path d="M67.114,97.121H4.9A4.9,4.9,0,0,1,0,92.227v-78.6a.926.926,0,0,1,.268-.651L12.853.274A.926.926,0,0,1,13.51,0h53.6a4.9,4.9,0,0,1,4.9,4.9v48.61a.925.925,0,1,1-1.851,0V4.9a3.048,3.048,0,0,0-3.045-3.044H13.9L1.852,14V92.227A3.047,3.047,0,0,0,4.9,95.271H67.114a3.047,3.047,0,0,0,3.045-3.044V78.161a.925.925,0,0,1,1.851,0V92.227A4.9,4.9,0,0,1,67.114,97.121Z" fill="#c00000"></path>
        <path d="M13.51,14.435H.925a.926.926,0,0,1-.654-1.58L12.856.27a.926.926,0,0,1,1.58.654V13.51A.925.925,0,0,1,13.51,14.435ZM3.16,12.584h9.425V3.159Z" fill="#c00000"></path>
        <path d="M34.262,10.6a.925.925,0,0,1,.925.925V23.454H47.113a.925.925,0,0,1,.925.926A13.777,13.777,0,1,1,34.262,10.6Zm11.89,14.7H34.262a.925.925,0,0,1-.925-.926V12.49A11.926,11.926,0,1,0,46.152,25.306Z" fill="#c00000"></path>
        <path d="M37.748,7.116A13.776,13.776,0,0,1,51.523,20.893a.925.925,0,0,1-.925.926H37.748a.925.925,0,0,1-.925-.926V8.042A.925.925,0,0,1,37.748,7.116ZM49.637,19.967A11.928,11.928,0,0,0,38.674,9V19.967Z" fill="#c00000"></path>
        <path d="M50.929,38.048a.924.924,0,0,1,.553.183l7.945,5.923a12.723,12.723,0,0,1,2.6,2.606L99.765,97.541a4.265,4.265,0,0,1-3.421,6.809,4.285,4.285,0,0,1-3.425-1.721L55.183,51.848a12.723,12.723,0,0,1-1.745-3.243l-3.379-9.317a.925.925,0,0,1,.87-1.241ZM96.344,102.5a2.414,2.414,0,0,0,1.936-3.854L60.544,47.864a10.872,10.872,0,0,0-2.223-2.226l-5.468-4.077,2.326,6.412a10.871,10.871,0,0,0,1.491,2.771L94.4,101.525A2.4,2.4,0,0,0,96.344,102.5Z" fill="#c00000"></path>
        <path d="M0-.925H6.679A.925.925,0,0,1,7.6,0V6.679a.925.925,0,0,1-.925.925H0a.925.925,0,0,1-.925-.925V0A.925.925,0,0,1,0-.925ZM5.753.926H.926V5.753H5.753Z" transform="matrix(0.803, -0.596, 0.596, 0.803, 86.278, 92.141)" fill="#c00000"></path>
        <path d="M0,4.8a.924.924,0,0,1-.744-.374A.926.926,0,0,1-.552,3.127L4.656-.743a.926.926,0,0,1,1.295.191A.926.926,0,0,1,5.76.743L.552,4.613A.921.921,0,0,1,0,4.8Z" transform="translate(55.175 46.256)" fill="#c00000"></path>
        <path d="M3.1-.925A4.028,4.028,0,1,1-.925,3.1,4.033,4.033,0,0,1,3.1-.925Zm0,6.206A2.178,2.178,0,1,0,.925,3.1,2.18,2.18,0,0,0,3.1,5.28Z" transform="translate(11.039 49.297)" fill="#c00000"></path>
        <path d="M25.116.925H0A.925.925,0,0,1-.926,0,.925.925,0,0,1,0-.925H25.116A.925.925,0,0,1,26.041,0,.925.925,0,0,1,25.116.925Z" transform="translate(21.997 52.4)" fill="#c00000"></path>
        <path d="M3.1-.925A4.028,4.028,0,1,1-.925,3.1,4.033,4.033,0,0,1,3.1-.925Zm0,6.206A2.178,2.178,0,1,0,.925,3.1,2.18,2.18,0,0,0,3.1,5.28Z" transform="translate(11.039 62.622)" fill="#c00000"></path>
        <path d="M33.178.925H0A.925.925,0,0,1-.925,0,.925.925,0,0,1,0-.925H33.178A.925.925,0,0,1,34.1,0,.925.925,0,0,1,33.178.925Z" transform="translate(21.997 65.725)" fill="#c00000"></path>
        <path d="M3.1-.925A4.029,4.029,0,1,1-.925,3.1,4.033,4.033,0,0,1,3.1-.925Zm0,6.206A2.178,2.178,0,1,0,.926,3.1,2.18,2.18,0,0,0,3.1,5.281Z" transform="translate(11.039 75.947)" fill="#c00000"></path>
        <path d="M38.973.925H0A.925.925,0,0,1-.926,0,.925.925,0,0,1,0-.925H38.973A.925.925,0,0,1,39.9,0,.925.925,0,0,1,38.973.925Z" transform="translate(21.997 79.05)" fill="#c00000"></path>
      </g>
    </g>
  </g>
</svg>
