<?xml version="1.0" encoding="UTF-8"?>
<svg xmlns="http://www.w3.org/2000/svg" xmlns:xlink="http://www.w3.org/1999/xlink" width="108.251" height="128.382" viewBox="0 0 108.251 128.382">
  <defs>
    <clipPath id="a">
      <rect width="108.251" height="128.382" fill="none" stroke="#c00000" stroke-width="1"></rect>
    </clipPath>
  </defs>
  <g clip-path="url(#a)">
    <path d="M43.635,101.489H1.139A1.139,1.139,0,0,1,0,100.351V1.138A1.138,1.138,0,0,1,1.139,0H76.447a1.138,1.138,0,0,1,1.139,1.138V61.356a1.139,1.139,0,0,1-2.277,0V2.276H2.277V99.212H43.635a1.139,1.139,0,0,1,0,2.277Z" fill="#c00000"></path>
    <path d="M102.308,128.382a5.9,5.9,0,0,1-4.2-1.741L75.365,103.9a1.139,1.139,0,0,1,1.61-1.61l22.741,22.74a3.666,3.666,0,1,0,5.184-5.184L82.163,97.11a1.138,1.138,0,0,1,1.61-1.61l22.737,22.737a5.943,5.943,0,0,1-4.2,10.145Z" fill="#c00000"></path>
    <path d="M0-1.138H9.608A1.138,1.138,0,0,1,10.747,0V8.925a1.138,1.138,0,0,1-1.139,1.139H0A1.138,1.138,0,0,1-1.138,8.925V0A1.138,1.138,0,0,1,0-1.138ZM8.47,1.139H1.139V7.787H8.47Z" transform="translate(88.62 115.545) rotate(-45)" fill="#c00000"></path>
    <path d="M64.913,62.628a22.351,22.351,0,1,1-8.435,1.642A22.341,22.341,0,0,1,64.913,62.628Zm0,42.558a20.074,20.074,0,1,0-7.579-1.475A20.075,20.075,0,0,0,64.913,105.186Z" fill="#c00000"></path>
    <path d="M15.044-1.139A16.182,16.182,0,0,1,26.486,26.486,16.182,16.182,0,1,1,3.6,3.6,16.076,16.076,0,0,1,15.044-1.139Zm0,30.087A13.905,13.905,0,0,0,24.876,5.211,13.905,13.905,0,1,0,5.211,24.876,13.814,13.814,0,0,0,15.044,28.949Z" transform="translate(49.87 70.001)" fill="#c00000"></path>
    <path d="M0-1.138H7.67A1.138,1.138,0,0,1,8.809,0V16.271A1.138,1.138,0,0,1,7.67,17.41H0a1.138,1.138,0,0,1-1.139-1.139V0A1.138,1.138,0,0,1,0-1.138ZM6.531,1.139H1.139V15.133H6.531Z" transform="translate(13.263 27.403)" fill="#c00000"></path>
    <path d="M0-1.139H7.67A1.138,1.138,0,0,1,8.809,0V22.779A1.138,1.138,0,0,1,7.67,23.917H0a1.138,1.138,0,0,1-1.139-1.139V0A1.138,1.138,0,0,1,0-1.139ZM6.531,1.139H1.139v20.5H6.531Z" transform="translate(28.371 20.895)" fill="#c00000"></path>
    <path d="M0-1.139H7.67A1.138,1.138,0,0,1,8.808,0V30.333A1.138,1.138,0,0,1,7.67,31.472H0a1.138,1.138,0,0,1-1.139-1.139V0A1.138,1.138,0,0,1,0-1.139ZM6.531,1.139H1.138V29.194H6.531Z" transform="translate(43.48 13.341)" fill="#c00000"></path>
    <path d="M0-1.138H7.67A1.138,1.138,0,0,1,8.808,0V13.133A1.138,1.138,0,0,1,7.67,14.272H0a1.138,1.138,0,0,1-1.139-1.139V0A1.138,1.138,0,0,1,0-1.138ZM6.531,1.139H1.138V11.995H6.531Z" transform="translate(58.588 30.541)" fill="#c00000"></path>
    <path d="M63,90.621a1.138,1.138,0,0,1-.805-.333l-4.27-4.27a1.139,1.139,0,0,1,1.61-1.61l3.427,3.427,7.3-8a1.139,1.139,0,1,1,1.682,1.535l-8.1,8.875a1.139,1.139,0,0,1-.815.371Z" fill="#c00000"></path>
    <path d="M53,1.138H0A1.139,1.139,0,0,1-1.139,0,1.139,1.139,0,0,1,0-1.138H53A1.139,1.139,0,0,1,54.134,0,1.139,1.139,0,0,1,53,1.138Z" transform="translate(13.262 57.117)" fill="#c00000"></path>
    <path d="M24.639,1.138H0A1.138,1.138,0,0,1-1.138,0,1.138,1.138,0,0,1,0-1.138H24.639A1.138,1.138,0,0,1,25.778,0,1.138,1.138,0,0,1,24.639,1.138Z" transform="translate(13.262 68.352)" fill="#c00000"></path>
    <path d="M18.944,1.138H0A1.138,1.138,0,0,1-1.138,0,1.138,1.138,0,0,1,0-1.138H18.944A1.138,1.138,0,0,1,20.083,0,1.138,1.138,0,0,1,18.944,1.138Z" transform="translate(13.262 79.586)" fill="#c00000"></path>
  </g>
</svg>
