<?xml version="1.0" encoding="UTF-8"?>
<svg xmlns="http://www.w3.org/2000/svg" xmlns:xlink="http://www.w3.org/1999/xlink" width="162.574" height="70" viewBox="0 0 162.574 70">
  <defs>
    <clipPath id="a">
      <rect width="162.574" height="70" fill="#c00000"></rect>
    </clipPath>
  </defs>
  <g clip-path="url(#a)">
    <path d="M213.575,27.107a.963.963,0,0,1,.4.075l.063.046a1.473,1.473,0,0,1,.218.315q2,4.015,3.975,7.989l.138.258c.642-.1,1.273-.218,1.9-.3a23.559,23.559,0,0,1,18.468,5.483,22.6,22.6,0,0,1,2.713,31.671A22.94,22.94,0,0,1,227.8,80.676a23.353,23.353,0,0,1-16.248-2.7,3.98,3.98,0,0,1-1.216-.918,2.426,2.426,0,0,1,.241-3.252,2.478,2.478,0,0,1,3.441,0,2.409,2.409,0,0,1,.229,3.252,8.743,8.743,0,0,1-.705.677A22.493,22.493,0,0,0,239,73.661a21.41,21.41,0,0,0,3.114-27.117A22.3,22.3,0,0,0,218.9,36.881c.206.413.407.832.614,1.245q4.519,9.091,9.045,18.17c.057.115.115.224.161.338a.561.561,0,0,1-.986.522,2.264,2.264,0,0,1-.166-.3l-9.653-19.408-.178-.344c-.574.161-1.09.3-1.629.488a22.011,22.011,0,0,0-7.571,4.37l-1.491,1.491-.964,1.147L203.3,49.246l-3.539,7.049-.31.619c-.206.407-.5.574-.809.424a.614.614,0,0,1-.218-.906l4.5-8.993q4.99-9.986,9.985-19.976l.166-.235.1-.069a.964.964,0,0,1,.4-.052m0,1.577c-2.179,4.37-4.33,8.666-6.475,12.968a24.229,24.229,0,0,1,10.146-5.569c-1.233-2.466-2.449-4.9-3.682-7.4Z" transform="translate(-84.576 -11.559)" fill="#fff" fill-rule="evenodd"></path>
    <path d="M213.495,26.6c.031,0,.063,0,.094,0a1.456,1.456,0,0,1,.582.114l.053.022.152.11.035.039a1.974,1.974,0,0,1,.292.423l0,.005c1.337,2.682,2.663,5.346,3.94,7.919l.179-.03c.454-.076.923-.154,1.387-.213a24.056,24.056,0,0,1,18.857,5.6,23.085,23.085,0,0,1,2.771,32.37,23.462,23.462,0,0,1-13.947,8.2,23.852,23.852,0,0,1-16.577-2.745,4.459,4.459,0,0,1-1.352-1.025l-.022-.026a2.915,2.915,0,0,1,.291-3.922,2.978,2.978,0,0,1,4.132,0,2.909,2.909,0,0,1,.274,3.924l-.025.03q-.092.1-.187.195a21.993,21.993,0,0,0,17.1.323,21.873,21.873,0,0,0,7.128-4.619A20.9,20.9,0,0,0,241.7,46.817a21.793,21.793,0,0,0-22.053-9.569l.017.034q.152.31.305.619c2.924,5.883,5.967,12,9.045,18.17l.028.055c.051.1.1.2.149.32l0,.01a1.078,1.078,0,0,1-.494,1.32l-.017.009a1.074,1.074,0,0,1-1.352-.343l-.011-.016a2.776,2.776,0,0,1-.2-.362L217.482,37.69c-.421.119-.807.232-1.21.369a21.4,21.4,0,0,0-7.389,4.262l-1.465,1.465-.924,1.1-2.757,4.6-3.84,7.651a1.163,1.163,0,0,1-1.034.755,1.006,1.006,0,0,1-.439-.1,1.051,1.051,0,0,1-.547-.6,1.24,1.24,0,0,1,.1-.975l2.263-4.525,2.235-4.47q4.99-9.985,9.985-19.976l.017-.034.242-.342.233-.155.059-.021A1.461,1.461,0,0,1,213.495,26.6Zm.067,1-.028,0a.462.462,0,0,0-.122.006l-.077.109-.232.464h.916l-.207-.415a.97.97,0,0,0-.095-.149.465.465,0,0,0-.114-.014Zm-.55,1.087-.082-.165q-4.784,9.568-9.563,19.133l-2.235,4.47-2.261,4.523a.322.322,0,0,0-.048.2c0,.012.026.023.035.028a.551.551,0,0,0,.146-.2l.308-.617,3.557-7.082,2.808-4.685,1.018-1.21,1.514-1.512a22.391,22.391,0,0,1,7.743-4.47c.533-.181,1.05-.326,1.6-.479l.448-.125.368.713,9.661,19.425a1.77,1.77,0,0,0,.122.226.074.074,0,0,0,.057.027.072.072,0,0,0,.023,0,.074.074,0,0,0,.027-.082c-.03-.073-.069-.152-.111-.235l-.03-.059c-3.078-6.175-6.121-12.289-9.045-18.171-.1-.207-.206-.416-.308-.626s-.2-.413-.3-.618l-.291-.581.637-.132a22.8,22.8,0,0,1,23.731,9.881,21.9,21.9,0,0,1-3.187,27.75,22.983,22.983,0,0,1-16,6.472,23.116,23.116,0,0,1-10.027-2.3l-.687-.333.58-.5a8.278,8.278,0,0,0,.651-.623,1.9,1.9,0,0,0-.193-2.562l0,0a1.978,1.978,0,0,0-2.747,0,1.92,1.92,0,0,0-.2,2.571,3.464,3.464,0,0,0,1.051.789l.031.017a22.852,22.852,0,0,0,15.9,2.638l.008,0a22.462,22.462,0,0,0,13.358-7.854,22.084,22.084,0,0,0-2.65-30.973,23.056,23.056,0,0,0-18.078-5.368c-.448.057-.887.13-1.352.208l-.539.089-.352.057-.312-.586c-1.163-2.344-2.367-4.764-3.583-7.2l-.073.147c1.262,2.552,2.508,5.047,3.565,7.162l.274.549-.593.158a23.824,23.824,0,0,0-9.936,5.454l-1.994,1.833,1.209-2.424q1.615-3.239,3.238-6.484Q211.443,31.837,213.011,28.7Zm3.517,7.07c-.9-1.8-1.919-3.844-2.96-5.945q-1.4,2.8-2.783,5.572l-2.175,4.354A24.857,24.857,0,0,1,216.528,35.765Z" transform="translate(-84.576 -11.559)" fill="#fff"></path>
    <path d="M1.318,27.11a.528.528,0,0,1,.528.528V56.871a.528.528,0,0,1-1.055,0V27.62a.528.528,0,0,1,.528-.51" transform="translate(-0.337 -11.561)" fill="#fff" fill-rule="evenodd"></path>
    <path d="M1.318,26.61a1.029,1.029,0,0,1,1.028,1.028V56.871a1.028,1.028,0,0,1-2.055,0V27.6A1.023,1.023,0,0,1,1.318,26.61Zm0,30.288a.028.028,0,0,0,.028-.028V27.638a.028.028,0,0,0-.055,0V56.871A.028.028,0,0,0,1.318,56.9Z" transform="translate(-0.337 -11.561)" fill="#fff"></path>
    <path d="M21.254,78.608a.528.528,0,0,1-.528.528H1.318a.528.528,0,0,1,0-1.055H20.726a.528.528,0,0,1,.528.528" transform="translate(-0.337 -33.298)" fill="#fff" fill-rule="evenodd"></path>
    <path d="M1.318,77.58H20.726a1.028,1.028,0,0,1,0,2.055H1.318a1.028,1.028,0,0,1,0-2.055Zm19.408,1.055a.028.028,0,0,0,0-.055H1.318a.028.028,0,0,0,0,.055Z" transform="translate(-0.337 -33.298)" fill="#fff"></path>
    <path d="M63.661,28.577c-2.179,4.37-4.33,8.666-6.481,12.962A24.344,24.344,0,0,1,67.331,35.97Zm0-1.577a.963.963,0,0,1,.4.075l.063.046a1.735,1.735,0,0,1,.224.315q2,4.015,3.975,7.989c.04.086.086.172.132.258.642-.1,1.273-.218,1.91-.3a23.767,23.767,0,0,1,6.154,0h.115L78,35.6a.573.573,0,1,1-.172,1.113l-.975-.155-1.721-.206a21.541,21.541,0,0,0-6.1.4c.206.419.407.837.614,1.25l9.05,18.2a2.609,2.609,0,0,1,.155.338.534.534,0,0,1-.264.7.574.574,0,0,1-.717-.184,1.9,1.9,0,0,1-.166-.3L68.02,37.323c-.052-.1-.109-.2-.184-.35-.574.166-1.09.31-1.623.493a22.049,22.049,0,0,0-7.582,4.353l-1.485,1.491-.941,1.13-2.816,4.7L49.856,56.2c-.109.212-.212.413-.315.625-.206.407-.493.574-.8.419a.61.61,0,0,1-.224-.9q2.243-4.5,4.5-8.993Q58,37.369,63,27.378l.166-.235.1-.069a.968.968,0,0,1,.39-.075" transform="translate(-20.646 -11.514)" fill="#fff" fill-rule="evenodd"></path>
    <path d="M63.689,26.5a1.454,1.454,0,0,1,.567.114l.053.022.153.111.036.04a2.237,2.237,0,0,1,.288.406l.01.02q1.978,3.979,3.939,7.917l.235-.039c.434-.073.882-.147,1.328-.208a24.266,24.266,0,0,1,6.253,0h.123l1.363.223a1.073,1.073,0,1,1-.329,2.1l-.926-.147-1.7-.2c-.531-.041-1.07-.061-1.6-.061a21.092,21.092,0,0,0-3.716.331c.107.219.216.443.325.661l9.047,18.2a3.121,3.121,0,0,1,.175.382A1.039,1.039,0,0,1,78.8,57.7a1.074,1.074,0,0,1-1.338-.345l-.006-.008a2.4,2.4,0,0,1-.206-.367L67.582,37.567c-.414.12-.809.236-1.207.372a21.441,21.441,0,0,0-7.4,4.245l-1.458,1.463-.9,1.083-2.786,4.648-3.535,7.07c-.1.2-.2.4-.3.6l0,.007a1.153,1.153,0,0,1-1.023.75,1,1,0,0,1-.45-.11,1.11,1.11,0,0,1-.449-1.569c1.529-3.068,3.042-6.094,4.5-9,3.208-6.419,6.569-13.14,9.991-19.976l.017-.034.242-.342.22-.147.044-.019a1.459,1.459,0,0,1,.566-.113h.045Zm.113,1.014a.465.465,0,0,0-.113-.014h-.005l4.367,8.8-.59.158a23.941,23.941,0,0,0-9.943,5.455l-2,1.832,1.214-2.424c2.113-4.221,4.3-8.586,6.481-12.961l.426-.854a.467.467,0,0,0-.124.018l-.084.119c-3.416,6.824-6.771,13.533-9.974,19.942-1.456,2.9-2.969,5.927-4.5,8.992-.087.177-.043.209-.005.228a.6.6,0,0,0,.137-.192c.1-.21.2-.406.31-.614l.008-.015,3.55-7.1,2.836-4.73,1-1.193,1.51-1.514a22.43,22.43,0,0,1,7.754-4.452c.459-.158.907-.287,1.382-.424l.66-.191.186.373c.037.075.07.135.1.194s.056.1.082.156l9.691,19.463a1.4,1.4,0,0,0,.118.214.074.074,0,0,0,.059.028.073.073,0,0,0,.032-.007l.007,0a.034.034,0,0,0,.017-.044l-.011-.027a2.118,2.118,0,0,0-.125-.274l-.009-.018-9.05-18.2c-.124-.248-.248-.5-.368-.749q-.122-.251-.246-.5L68.3,36.4l.63-.133a22.087,22.087,0,0,1,4.554-.476c.561,0,1.13.022,1.69.065l.021,0,1.739.209,1.022.162.045.016a.067.067,0,0,0,.023,0,.074.074,0,0,0,.055-.023.072.072,0,0,0,.019-.053.073.073,0,0,0-.073-.071l-.051,0-.053-.008-1.325-.217h-.107l-.032,0a23.267,23.267,0,0,0-6.025,0c-.428.058-.849.128-1.3.2l-.6.1-.352.057-.168-.315c-.047-.089-.1-.18-.141-.276q-1.975-3.967-3.967-7.973A1.24,1.24,0,0,0,63.8,27.513Zm2.813,8.139L63.66,29.7c-1.668,3.343-3.335,6.674-4.967,9.934A24.978,24.978,0,0,1,66.615,35.652Z" transform="translate(-20.646 -11.514)" fill="#fff"></path>
    <path d="M119.119,27.11a.539.539,0,0,1,.539.539V56.871a.539.539,0,1,1-1.078,0V27.649a.539.539,0,0,1,.539-.539" transform="translate(-50.57 -11.561)" fill="#fff" fill-rule="evenodd"></path>
    <path d="M119.119,26.61a1.04,1.04,0,0,1,1.039,1.039V56.871a1.039,1.039,0,0,1-2.078,0V27.649A1.04,1.04,0,0,1,119.119,26.61Zm0,30.3a.039.039,0,0,0,.039-.039V27.649a.039.039,0,0,0-.078,0V56.871A.039.039,0,0,0,119.119,56.91Z" transform="translate(-50.57 -11.561)" fill="#fff"></path>
    <path d="M122.164,27.649a.539.539,0,0,1-.539.539H102.239a.539.539,0,1,1,0-1.078h19.386A.539.539,0,0,1,122.164,27.649Z" transform="translate(-43.371 -11.561)" fill="#fff" fill-rule="evenodd"></path>
    <path d="M102.239,26.61h19.386a1.039,1.039,0,0,1,0,2.078H102.239a1.039,1.039,0,1,1,0-2.078Zm19.386,1.078a.039.039,0,0,0,0-.078H102.239a.039.039,0,1,0,0,.078Z" transform="translate(-43.371 -11.561)" fill="#fff"></path>
    <path d="M180.049,27.11a.574.574,0,0,1,.539.539V56.871a.574.574,0,0,1-.539.539.539.539,0,0,1-.539-.539V27.649a.539.539,0,0,1,.539-.539" transform="translate(-76.555 -11.561)" fill="#fff" fill-rule="evenodd"></path>
    <path d="M180.049,26.61h.03a1.075,1.075,0,0,1,1.009,1.009V56.9a1.075,1.075,0,0,1-1.009,1.009h-.03a1.04,1.04,0,0,1-1.039-1.039V27.649A1.04,1.04,0,0,1,180.049,26.61Zm.039,1.061a.074.074,0,0,0-.052-.059.039.039,0,0,0-.026.037V56.871a.039.039,0,0,0,.026.037.074.074,0,0,0,.052-.059Z" transform="translate(-76.555 -11.561)" fill="#fff"></path>
    <path d="M183.089,27.649a.539.539,0,0,1-.539.539H163.159a.539.539,0,1,1,0-1.078H182.55A.539.539,0,0,1,183.089,27.649Z" transform="translate(-69.352 -11.561)" fill="#fff" fill-rule="evenodd"></path>
    <path d="M163.159,26.61H182.55a1.039,1.039,0,1,1,0,2.078H163.159a1.039,1.039,0,1,1,0-2.078Zm19.391,1.078a.039.039,0,1,0,0-.078H163.159a.039.039,0,1,0,0,.078Z" transform="translate(-69.352 -11.561)" fill="#fff"></path>
    <path d="M149.574,27.109a.539.539,0,0,1,.539.539V56.87a.557.557,0,0,1-1.111.036c0-.012,0-.024,0-.036V27.648a.539.539,0,0,1,.538-.54h.036" transform="translate(-63.543 -11.561)" fill="#fff" fill-rule="evenodd"></path>
    <path d="M149.537,26.608h.05a1.04,1.04,0,0,1,1.026,1.039V56.87a1.057,1.057,0,0,1-2.11.067V56.93c0-.021,0-.04,0-.06V27.648a1.039,1.039,0,0,1,1.037-1.04Zm0,30.3h.035a.039.039,0,0,0,.039-.039V27.648a.039.039,0,0,0-.039-.039h-.036a.037.037,0,0,0-.026.011.037.037,0,0,0-.011.028V56.875A.039.039,0,0,0,149.539,56.91Z" transform="translate(-63.543 -11.561)" fill="#fff"></path>
    <path d="M241.215,87a2.688,2.688,0,0,1,1.789.574L244.083,87v2.937h-.247a2.443,2.443,0,0,0-.39-1.376,2.784,2.784,0,0,0-.912-.918,2.056,2.056,0,0,0-1.061-.321.714.714,0,0,0-.43.126.488.488,0,0,0-.206.321,3.188,3.188,0,0,0-.046.614v4.686a1.554,1.554,0,0,0,.189.878.74.74,0,0,0,.637.27,2.833,2.833,0,0,0,2.26-1.313l.247.166a4.051,4.051,0,0,1-1.262,1.147,3.516,3.516,0,0,1-1.617.338,3.781,3.781,0,0,1-2.77-1.055,4.015,4.015,0,0,1,0-5.46A3.79,3.79,0,0,1,241.215,87" transform="translate(-101.244 -37.1)" fill="#c00000" fill-rule="evenodd"></path>
    <path d="M186.371,87.4H188.8l2.369,6.814h.39v.247h-4.347v-.247h.8l-.671-1.921h-2.466a2.173,2.173,0,0,0-.075.614,1.509,1.509,0,0,0,.281.935,1.193,1.193,0,0,0,1,.384v.247H183.32v-.247a1.431,1.431,0,0,0,.637-.574,4.668,4.668,0,0,0,.528-1.038Zm-.264,1.359-1.147,3.286h2.294Z" transform="translate(-78.179 -37.273)" fill="#b70e0c" fill-rule="evenodd"></path>
    <path d="M198.75,87.4H205.7v2.185h-.235a3.1,3.1,0,0,0-.281-.86,2.055,2.055,0,0,0-.5-.608,1.99,1.99,0,0,0-.625-.373,3.021,3.021,0,0,0-.883-.1h-.5v3.206a1.809,1.809,0,0,0,.809-.178,1.1,1.1,0,0,0,.465-.528,2.384,2.384,0,0,0,.161-.986h.252v3.521h-.252a1.98,1.98,0,0,0-.321-1.2,1.33,1.33,0,0,0-1.09-.373h-.046v3.12h.941v.247h-4.835v-.247h.814V87.647h-.814Z" transform="translate(-84.76 -37.273)" fill="#c00000" fill-rule="evenodd"></path>
    <path d="M211.6,87.4h5.867a2.342,2.342,0,0,1,1.8.5,1.8,1.8,0,0,1,.407,1.147,1.675,1.675,0,0,1-1.216,1.675,1.9,1.9,0,0,1,.941.574,1.621,1.621,0,0,1,.212.9l-.034,1.078c0,.2.046.3.132.3s.1-.04.161-.12a.889.889,0,0,0,.12-.293l.258.069a1.439,1.439,0,0,1-1.525,1.348h-.012a3.044,3.044,0,0,1-.964-.132,1.4,1.4,0,0,1-.637-.4,1.615,1.615,0,0,1-.35-.683,9.608,9.608,0,0,1-.1-1.824.762.762,0,0,0-.149-.574.861.861,0,0,0-.574-.143h-.39v3.338h.711v.252H211.6v-.247h.832V87.647H211.6Zm3.912.247v2.965h.184a1.24,1.24,0,0,0,.751-.166.734.734,0,0,0,.2-.574V88.381a.856.856,0,0,0-.149-.574,1.009,1.009,0,0,0-.631-.138Z" transform="translate(-90.24 -37.273)" fill="#c00000" fill-rule="evenodd"></path>
    <path d="M227.52,87.4h4.709v.247h-.843v6.573h.843v.247H227.52v-.247h.809V87.647h-.809Z" transform="translate(-97.029 -37.273)" fill="#c00000" fill-rule="evenodd"></path>
    <path d="M252.857,87.4h2.409l2.374,6.814h.4v.247h-4.324v-.247h.809l-.665-1.921h-2.449a2.162,2.162,0,0,0-.1.608,1.546,1.546,0,0,0,.281.935,1.193,1.193,0,0,0,1,.384v.247H249.84v-.247a1.4,1.4,0,0,0,.631-.574,4.187,4.187,0,0,0,.522-1.038Zm-.258,1.359-1.147,3.286h2.294Z" transform="translate(-106.548 -37.273)" fill="#c00000" fill-rule="evenodd"></path>
    <path d="M142,4.657a4.554,4.554,0,1,1,0,.069V4.657" transform="translate(-60.558 -0.068)" fill="#c00000" fill-rule="evenodd"></path>
  </g>
</svg>
